<?xml version="1.0" encoding="UTF-8"?>
<svg id="Layer_2" data-name="Layer 2" xmlns="http://www.w3.org/2000/svg" viewBox="0 0 1311.9 535.46">
  <defs>
    <linearGradient id="silver-metallic" x1="0%" y1="0%" x2="100%" y2="100%">
      <stop offset="0%" stop-color="#ffffff" />
      <stop offset="25%" stop-color="#b8bac2" />
      <stop offset="50%" stop-color="#eef0f5" />
      <stop offset="75%" stop-color="#8a8d99" />
      <stop offset="100%" stop-color="#d1d4dc" />
    </linearGradient>
  </defs>
  <g id="Layer_1-2" data-name="Layer 1" fill="url(#silver-metallic)">
    <g>
      <path d="M1311.9,407.68v2.45s-635.07.12-635.07.12c-.33-.34-.44-.61-.57-1.14l18.73-87.08c.18-.84.35-1.41.55-1.78.16-.28,1.12-.15,1.83-.15h240.19s139.68,0,139.68,0l.71-.63c.96-.86,1.43-2.36.2-3.51l-237.97-222.42-6.7-3.22-78.38-.05-422.56-.03c-1.41,0-3.26.98-4.18,1.76l-58.41,88.26c-.21.31-.91,1.34-.61,1.37l1.76.18h246.19s158.87-.06,158.87-.06l-151.47,228.38-516.95.15-1.52-.29c-.18-.03.35-.56.47-.69l1.84-2.74,16.01-23.87.46-.69,41.1-61.54.95-.1h.95s29.14-.1,29.14-.1l118.36-.03,258.34-.19c.65,0,2.09-.99,2.47-1.44l4.29-5.15c8.42-11.58,15.86-23.43,23.16-35.72.85-1.43,1.76-2.74,1.08-4.2H99.16c-.87-.08-1.22-.14-1.09-.34l.75-1.25,59.81-89.97L277.44,3.19C279.39,1.04,281.54,0,284.55,0h586.48s43.08,37.98,43.08,37.98l102.11,96.11,16.36,14.85,96.93,90.29,63.67,58.76,48.73,46.23,67.59,62.21c.52.48,1.94,1.02,2.38,1.26Z"/>
      <polygon points="1026.95 520.94 1023.97 475.66 1013.16 520.91 993.02 520.89 982.66 478.73 979.83 520.93 954.91 520.91 960.77 438.73 992.04 438.72 1003.16 488.94 1014.12 438.72 1045.51 438.73 1051.37 520.91 1026.95 520.94"/>
      <polygon points="886.24 520.92 883.36 475.38 872.47 520.92 852.34 520.91 841.87 478.37 839.14 520.93 814.23 520.91 820.09 438.73 851.35 438.72 862.45 488.94 873.44 438.74 904.83 438.72 910.69 520.91 886.24 520.92"/>
      <path d="M336.38,469.03c4.67,19.5-2.62,38.74-21.19,47.34-6.3,2.69-12.75,4.48-19.82,4.49l-44.57.06v-82.18s45.07.08,45.07.08c8.16.01,15.64,2.43,22.59,6.19,9.09,5.41,15.47,13.74,17.94,24.03ZM310.67,488.1c1.61-6.08,1.45-11.96-.73-17.54-2.66-6.78-8.79-11.24-16.18-11.28l-18.09-.09v41.26s19.31-.17,19.31-.17c7.46-.07,13.53-4.95,15.69-12.17Z"/>
      <path d="M560.09,535.46l-12.52-14.19c-24.94,6.25-51.35-5.09-56.94-31.01-4.77-22.11,5.73-43.96,27.63-50.7,10.74-3.3,22.1-3.22,32.74.34,20.86,6.97,30.37,27.66,26.64,49.04-1.42,7.54-4.52,14.19-9.58,20.11l10.64,11.87-18.61,14.54ZM533.69,502.42c8.19.12,14.93-4.06,17.97-11.55,2.76-6.79,2.79-14.42.18-21.27-3.08-8.09-10.53-12.52-19.08-12.04-7.53.42-13.7,4.55-16.39,11.7-2.51,6.68-2.59,14.09-.22,20.84,2.69,7.68,9.31,12.2,17.54,12.32Z"/>
      <path d="M1307.14,520.8l-26.63.13-12.7-24.41h-13.37s0,24.39,0,24.39h-24.87s0-82.29,0-82.29l37.34.07c8.07.02,15.75.97,23.1,3.76,6.76,2.72,11.85,7.53,14.1,14.46,3.74,15.19.93,29.39-14.38,35.59l17.42,28.29ZM1279.87,467.81c.37-5.12-3.24-9.03-8.11-9.13l-17.33-.36v19.63s17.56-.67,17.56-.67c4.91-.7,8.33-4.22,7.88-9.48Z"/>
      <path d="M176.82,506.01l-32.54.03-5.37,14.89-26.61-.02,33.29-82.17h29.79s33.42,82.19,33.42,82.19h-26.52s-5.48-14.91-5.48-14.91ZM169.14,485.14l-8.71-23.23-8.48,23.2,17.2.03Z"/>
      <path d="M742.85,506.06l-32.57-.06-5.39,14.92-26.62-.02,33.3-82.17h29.77s33.4,82.14,33.4,82.14l-26.49.08-5.42-14.88ZM735.14,485.17l-8.74-23.4-8.51,23.41h17.25Z"/>
      <path d="M1155.65,506.06l-32.57-.06-5.39,14.92-26.62-.02,33.3-82.17h29.77s33.4,82.14,33.4,82.14l-26.49.08-5.42-14.88ZM1147.94,485.17l-8.74-23.4-8.51,23.41h17.25Z"/>
      <polygon points="439.21 488.66 406.74 488.69 406.74 501.08 446.8 501.08 446.78 520.92 382.67 520.92 382.67 438.74 446.77 438.72 446.8 458.46 406.73 458.48 406.74 469.56 439.2 469.77 439.21 488.66"/>
      <path d="M70.37,510.17c-3.7,4.61-8.36,7.56-13.74,9.48-17.55,6.26-36.73,2.63-51.07-9.11l-5.56-4.75,18.4-14.14c7.71,7.85,19.74,14.58,29.36,8.69.76-.8,1.68-1.85,1.9-2.61.87-3.04-4.98-5.89-9.29-7.56l-15.49-5.98c-3.97-1.53-7.37-3.73-10.74-6.22-9.79-7.22-11.57-20.66-3.84-30.2,7.65-9.44,22.04-11.76,34.23-11.03,10.79.65,20.7,4.38,29.33,11.46l-17.58,14.1-6.95-4.08c-6.19-3.43-15.63-3.77-17.37,2.03-.34,1.12,1.17,3.07,2.35,3.54l10.04,3.96c9.51,3.75,21.72,6.73,27.9,16.57,5.01,7.98,4.15,18.32-1.89,25.84Z"/>
    </g>
  </g>
</svg>